<?xml version="1.0" encoding="utf-8"?>
<!-- Generator: Adobe Illustrator 25.0.1, SVG Export Plug-In . SVG Version: 6.00 Build 0)  -->
<svg version="1.1" id="katman_1" xmlns="http://www.w3.org/2000/svg" xmlns:xlink="http://www.w3.org/1999/xlink" x="0px" y="0px"
	 viewBox="0 0 1200 800" style="enable-background:new 0 0 1200 800;" xml:space="preserve">
<style type="text/css">
	.st0{fill:#8CD0E0;}
	.st1{fill:#002E5F;}
	.st2{fill:#5061AA;}
	.st3{fill:#8B328A;}
	.st4{fill:#5D80C0;}
	.st5{fill:#E94E29;}
	.st6{fill:#D5262A;}
	.st7{fill:#F6A022;}
	.st8{fill:#6A95CD;}
	.st9{fill:#306FB6;}
	.st10{fill:#73C8DD;}
	.st11{fill:#92C143;}
	.st12{fill:#169BD6;}
	.st13{fill:#199AA6;}
	.st14{fill:#A5BFDF;}
	.st15{fill:#3FB7AF;}
	.st16{fill:#AE2258;}
	.st17{fill:#79C199;}
	.st18{fill:#E5DF1F;}
	.st19{fill:#33BACF;}
	.st20{fill:#6CA9DB;}
	.st21{fill:#DE5097;}
	.st22{fill:#604596;}
	.st23{fill:#FAD803;}
	.st24{fill:#0BB8E7;}
	.st25{fill:#41AD4C;}
	.st26{fill:#E7B720;}
	.st27{fill:#B9CF37;}
</style>
<path class="st0" d="M679.28,359.38h-52.15v85.23c0,28.21-17.18,35.57-28.54,35.57c-16.55,0-25.77-7.36-25.77-28.52v-92.28h-52.15
	v95.65c0,41.69,13.2,68.05,58.92,68.05c18.38,0,38.65-10.1,48.46-26.34h0.62v21.77h50.62L679.28,359.38z"/>
<path class="st1" d="M691.54,518.47h52.15V299.61h-52.15v218.85V518.47z M363.92,518.47h151.54v-39.85H430.2l79.46-79.71v-39.54
	H370.35v39.85h73l-79.41,78.79v40.46L363.92,518.47z M138.46,518.47h58.59l13.8-39.23h76.41l13.49,39.23h59.52l-81.92-218.85h-57.96
	l-81.92,218.83L138.46,518.47z M248.89,360.3h0.62l24.23,76.64h-49.69L248.89,360.3z"/>
<path class="st2" d="M969.96,299.69h14.26v11.23h-14.28L969.96,299.69z"/>
<path class="st3" d="M917.38,420.04h43.65v46.54h-43.65V420.04z"/>
<path class="st4" d="M946.09,476.53h28.69v17.38h-28.69V476.53z"/>
<path class="st5" d="M929.08,484.66h34.48v34.14h-34.48L929.08,484.66z"/>
<path class="st6" d="M971.79,453.67h29.52v12.92h-29.51L971.79,453.67z"/>
<path class="st7" d="M961,430.13h30.27v7.65H961V430.13z"/>
<path class="st8" d="M1001.28,453.67h21.15v5.82h-21.15V453.67z"/>
<path class="st9" d="M961,393.07h28.92v37.08H961V393.07z"/>
<path class="st10" d="M904.51,364.64h56.54v55.41h-56.54V364.64z"/>
<path class="st11" d="M871.62,364.66h37.75v30.65h-37.75V364.66z"/>
<path class="st2" d="M920.6,312.77h63.97v52.28H920.6V312.77z"/>
<path class="st12" d="M989.87,371.43h46.62v56.9h-46.62V371.43z"/>
<path class="st7" d="M982.54,403.81h39.9v50h-39.91L982.54,403.81z"/>
<path class="st6" d="M961,437.67h29.52v28.87H961V437.67z"/>
<path class="st13" d="M943.75,455.8h38.09v20.92h-38.11L943.75,455.8z"/>
<path class="st14" d="M1022.38,423.26h8.15v25.05h-8.15V423.26z"/>
<path class="st15" d="M1036.46,369.67h21.33v13.18h-21.32L1036.46,369.67z"/>
<path class="st16" d="M1034.48,382.84h15.38v8.58h-15.38V382.84z"/>
<path class="st17" d="M961,342.42h28.92v50.72H961V342.42z"/>
<path class="st18" d="M989.87,322h38.91v49.42h-38.89L989.87,322z"/>
<path class="st19" d="M984.52,312.77h28.36v46.34h-28.36V312.77z"/>
<path class="st20" d="M1022.85,357.82h38.69v13.62h-38.69V357.82z"/>
<path class="st21" d="M1028.82,327.97h18.48v29.86h-18.48V327.97z"/>
<path class="st22" d="M1041.75,337.37h17.14v12.52h-17.14V337.37z"/>
<path class="st23" d="M1037.35,349.9h24.19v12.52h-24.19V349.9z"/>
<path class="st2" d="M969.85,299.15h14.54v11.77h-14.54V299.15z M920.6,299.51h26.38v29.25H920.6V299.51z"/>
<path class="st24" d="M839.1,299.51h81.62v65.54H839.1V299.51z"/>
<path class="st25" d="M880.96,276.92h28.4v36.96h-28.4V276.92z"/>
<path class="st26" d="M821.92,359.46h52.69V380h-52.69V359.46z"/>
<path class="st27" d="M946.92,280.27h20.46v32.49h-20.46V280.27z"/>
<path class="st11" d="M974.25,403.81h8.28v8.26h-8.31L974.25,403.81z"/>
</svg>
