<!DOCTYPE svg PUBLIC "-//W3C//DTD SVG 1.1//EN" "http://www.w3.org/Graphics/SVG/1.1/DTD/svg11.dtd">
<!-- Uploaded to: SVG Repo, www.svgrepo.com, Transformed by: SVG Repo Mixer Tools -->
<svg fill="#47B3E7" height="800px" width="800px" version="1.1" id="Layer_1" xmlns="http://www.w3.org/2000/svg" xmlns:xlink="http://www.w3.org/1999/xlink" viewBox="0 0 491.52 491.52" xml:space="preserve" stroke="#47B3E7">
<g id="SVGRepo_bgCarrier" stroke-width="0"/>
<g id="SVGRepo_tracerCarrier" stroke-linecap="round" stroke-linejoin="round"/>
<g id="SVGRepo_iconCarrier"> <g> <g> <g> <path d="M153.579,327.69h184.32c11.311,0,20.48-9.169,20.48-20.48v-102.4c0-11.311-9.169-20.48-20.48-20.48h-184.32 c-11.311,0-20.48,9.169-20.48,20.48v102.4C133.099,318.521,142.269,327.69,153.579,327.69z M174.059,225.29h143.36v61.44h-143.36 V225.29z"/> <path d="M434.269,403.635c0.083-0.083,0.158-0.173,0.24-0.257c0.373-0.384,0.73-0.774,1.065-1.172 c0.056-0.067,0.108-0.137,0.162-0.205c3.43-4.178,4.832-9.099,4.567-13.864V20.48c0-11.311-9.169-20.48-20.48-20.48H215.019 h-81.92h-30.368C74.259,0,51.184,23.075,51.184,51.548v378.37c0,0.054-0.004,0.108-0.004,0.162 c0,33.941,27.499,61.44,61.44,61.44h307.2c18.246,0,27.383-22.06,14.482-34.962C415.01,437.268,415,422.92,434.269,403.635z M194.539,40.96v54.159l-6.255-6.039c-7.936-7.662-20.515-7.662-28.45,0l-6.255,6.039V40.96H194.539z M92.144,51.548 c0-5.852,4.737-10.588,10.588-10.588h9.888v102.4c0,18.073,21.703,27.287,34.705,14.733l26.735-25.813l26.735,25.813 c13.002,12.553,34.705,3.339,34.705-14.733V40.96h163.844v327.68h-286.72h-0.004c-0.008,0-0.015,0.001-0.023,0.001 c-0.978,0-1.949,0.028-2.916,0.074c-0.326,0.015-0.648,0.042-0.973,0.063c-0.65,0.041-1.298,0.087-1.942,0.148 c-0.374,0.035-0.746,0.078-1.119,0.12c-0.594,0.067-1.185,0.141-1.773,0.225c-0.381,0.054-0.761,0.111-1.14,0.172 c-0.587,0.095-1.171,0.201-1.752,0.313c-0.36,0.069-0.721,0.135-1.079,0.21c-0.655,0.138-1.303,0.292-1.95,0.45 c-0.272,0.067-0.547,0.125-0.817,0.195c-0.895,0.232-1.783,0.484-2.662,0.756c-0.282,0.087-0.558,0.186-0.838,0.276 c-0.499,0.162-1,0.318-1.493,0.492V51.548z M382.34,450.56h-269.72c-11.32,0-20.48-9.16-20.48-20.48h0.004 c0-11.32,9.16-20.48,20.48-20.48H382.34C377.706,423.174,377.706,436.986,382.34,450.56z"/> </g> </g> </g> </g>
</svg>