<!DOCTYPE svg PUBLIC "-//W3C//DTD SVG 1.1//EN" "http://www.w3.org/Graphics/SVG/1.1/DTD/svg11.dtd">
<!-- Uploaded to: SVG Repo, www.svgrepo.com, Transformed by: SVG Repo Mixer Tools -->
<svg height="800px" width="800px" version="1.1" id="_x32_" xmlns="http://www.w3.org/2000/svg" xmlns:xlink="http://www.w3.org/1999/xlink" viewBox="0 0 512 512" xml:space="preserve" fill="#000000">
<g id="SVGRepo_bgCarrier" stroke-width="0"/>
<g id="SVGRepo_tracerCarrier" stroke-linecap="round" stroke-linejoin="round"/>
<g id="SVGRepo_iconCarrier"> <style type="text/css"> .st0{fill:#47B3E7;} </style> <g> <path class="st0" d="M215.206,68.098c-2.548,3.502-1.117,5.982,3.188,5.505l16.658-1.81c4.306-0.461,9.268,2.407,10.996,6.362 l6.78,15.332c1.758,3.986,4.619,3.986,6.377,0l6.749-15.332c1.729-3.956,6.69-6.824,11.011-6.362l16.657,1.81 c4.291,0.477,5.736-2.003,3.174-5.505l-9.894-13.514c-2.562-3.486-2.562-9.223,0-12.709l9.894-13.521 c2.562-3.494,1.118-5.975-3.174-5.506l-16.657,1.81c-4.321,0.47-9.282-2.398-11.011-6.355l-6.749-15.331 c-1.758-3.964-4.619-3.964-6.377,0l-6.78,15.331c-1.728,3.956-6.689,6.824-10.996,6.355l-16.658-1.81 c-4.305-0.469-5.736,2.012-3.188,5.506l9.908,13.521c2.548,3.486,2.548,9.223,0,12.709L215.206,68.098z"/> <path class="st0" d="M419.238,379.866c0.007,0.008,0.007,0.015,0.014,0.022l0.015,0.008L419.238,379.866z"/> <path class="st0" d="M419.252,379.888L419.252,379.888l-34.253-39.17v-0.008c-0.745-0.849-1.237-2.108-1.237-3.404 c0-0.172,0.014-0.32,0.03-0.469v-0.015c0.059-0.76,0.283-1.452,0.596-2.056c0.313-0.588,0.716-1.072,1.177-1.43l10.712-8.426 l0.045-0.037c2.503-1.959,4.499-4.425,5.915-7.166c1.416-2.742,2.25-5.766,2.458-8.894c0.03-0.5,0.045-0.984,0.045-1.476 c0-5.766-2.16-11.316-6.184-15.51v-0.008l-46.173-48.042c-0.805-0.827-1.371-2.176-1.371-3.628c0-0.164,0.015-0.312,0.015-0.454 c0.089-0.79,0.327-1.52,0.685-2.123c0.358-0.626,0.819-1.11,1.296-1.452l2.727-1.892c2.786-1.907,5.006-4.41,6.6-7.249 c1.594-2.838,2.562-6.012,2.816-9.32v-0.03c0.045-0.566,0.06-1.124,0.06-1.676c-0.014-5.997-2.324-11.815-6.719-16.092 l-68.79-66.704l-19.25-18.654v-0.015c-1.997-1.922-4.306-3.412-6.765-4.402c-2.458-0.991-5.08-1.498-7.688-1.498 c-2.607,0-5.229,0.506-7.688,1.498c-2.473,0.991-4.782,2.481-6.764,4.402l-88.04,85.366l-0.016,0.007 c-4.35,4.254-6.689,10.042-6.689,16.04c0,0.58,0.014,1.17,0.059,1.765c0.388,4.924,2.324,9.588,5.632,13.253 c1.132,1.266,2.398,2.376,3.754,3.3l-0.015-0.007l2.756,1.922h0.015c0.224,0.149,0.432,0.336,0.73,0.633 c0.596,0.678,1.102,1.736,1.221,2.95c0.03,0.15,0.03,0.306,0.03,0.462c0,1.423-0.567,2.771-1.386,3.62l-46.143,48.02v0.008 c-4.008,4.186-6.184,9.744-6.184,15.502c0,0.5,0.015,0.991,0.045,1.498v-0.008c0.313,4.671,2.026,9.141,5.021,12.776 c0.938,1.147,2.041,2.265,3.308,3.264l6.824,5.364l3.978,3.098c0.909,0.723,1.654,2.004,1.773,3.48 c0.015,0.156,0.03,0.312,0.03,0.461c0,1.349-0.491,2.623-1.236,3.457v-0.008l-34.253,39.133l-0.06,0.067 c-3.606,4.186-5.454,9.446-5.454,14.772c0,2.175,0.298,4.366,0.939,6.503l0.014,0.023l0.015,0.052 c1.177,3.866,3.367,7.3,6.303,9.953c-0.015-0.008-0.015-0.008-0.03-0.015l0.06,0.038l-0.008-0.008 c2.592,2.354,5.826,4.128,9.484,4.932l0.924,0.216h99.616v75.711c0,2.727,0.567,5.364,1.564,7.74 c1.52,3.591,4.023,6.608,7.197,8.768c3.174,2.138,7.047,3.412,11.144,3.404h63.054c2.727,0,5.364-0.566,7.748-1.572 c3.591-1.52,6.6-4.03,8.746-7.204c2.145-3.166,3.427-7.04,3.427-11.138v-75.711h99.602l0.924-0.208 c3.83-0.842,7.256-2.742,9.968-5.341c2.712-2.6,4.738-5.9,5.841-9.61c0.655-2.16,0.968-4.38,0.968-6.585 C424.75,389.312,422.888,384.052,419.252,379.888z M290.18,492.087c0,0.38-0.075,0.708-0.208,1.021 c-0.194,0.462-0.537,0.894-0.969,1.184c-0.447,0.283-0.909,0.447-1.476,0.447h-63.054c-0.388,0-0.715-0.075-1.027-0.208 c-0.463-0.187-0.88-0.544-1.163-0.969c-0.298-0.439-0.447-0.902-0.462-1.475v-75.711h68.358V492.087z M407.258,396.232 l-0.015,0.037c-0.253,0.872-0.715,1.572-1.236,2.086c-0.372,0.336-0.746,0.596-1.162,0.76H107.186 c-0.372-0.164-0.73-0.372-1.073-0.693l-0.03-0.022v-0.008c-0.581-0.507-1.073-1.259-1.356-2.153 c-0.15-0.499-0.224-1.021-0.224-1.557c0-1.326,0.491-2.607,1.237-3.464l34.268-39.141c3.635-4.157,5.498-9.431,5.498-14.818 c0-0.633-0.015-1.273-0.074-1.922v-0.022v-0.008c-0.552-6.087-3.486-11.718-8.299-15.532l-0.015-0.008l-3.993-3.129l-6.794-5.348 v0.007c-0.223-0.179-0.447-0.402-0.67-0.678l-0.015-0.008c-0.58-0.708-1.028-1.766-1.102-2.928v-0.008 c0-0.104-0.014-0.223-0.014-0.35c0-1.4,0.551-2.704,1.385-3.561l46.143-48.028l0.03-0.03c4.023-4.224,6.154-9.789,6.168-15.532 c0-0.678-0.044-1.371-0.104-2.064v-0.037v-0.045c-0.492-4.782-2.414-9.319-5.692-12.917l-0.03-0.037l-0.045-0.045 c-1.013-1.087-2.22-2.16-3.591-3.114l-2.772-1.929l-0.014-0.008c-0.253-0.171-0.462-0.365-0.656-0.58l-0.03-0.023l-0.015-0.022 c-0.641-0.7-1.133-1.773-1.236-3.025v-0.008c0-0.141-0.015-0.283-0.015-0.424c0-1.453,0.596-2.823,1.475-3.658l88.025-85.351 l-0.015,0.015c0.418-0.403,0.82-0.656,1.222-0.812c0.417-0.172,0.819-0.246,1.236-0.246s0.82,0.074,1.222,0.246 c0.418,0.156,0.82,0.41,1.222,0.805l19.25,18.654l68.775,66.689c0.432,0.418,0.805,0.961,1.073,1.601 c0.253,0.641,0.417,1.364,0.417,2.109c0,0.134-0.014,0.268-0.03,0.402c-0.059,0.797-0.297,1.557-0.655,2.183 c-0.342,0.626-0.79,1.11-1.282,1.445l-2.816,1.952c-2.682,1.862-4.858,4.291-6.437,7.04c-1.579,2.757-2.578,5.841-2.89,9.074v0.044 v0.045c-0.075,0.678-0.089,1.349-0.089,2.012c0,5.722,2.101,11.331,6.183,15.592l46.173,48.036c0.804,0.834,1.371,2.16,1.356,3.561 c0,0.119,0,0.246,0,0.358c-0.059,0.774-0.253,1.49-0.581,2.101c-0.313,0.618-0.73,1.102-1.192,1.474l-10.802,8.493 c-2.429,1.9-4.366,4.291-5.766,6.936c-1.415,2.645-2.265,5.565-2.548,8.596c-0.06,0.678-0.074,1.349-0.074,2.012 c0,5.393,1.907,10.646,5.498,14.772l34.253,39.163l0.015,0.023c0.744,0.841,1.221,2.07,1.221,3.367 C407.496,395.174,407.422,395.711,407.258,396.232z"/> <path class="st0" d="M152.51,230.932l-0.014-0.016C152.51,230.924,152.51,230.932,152.51,230.932L152.51,230.932z"/> <polygon class="st0" points="423.782,401.239 423.796,401.194 423.782,401.216 "/> <path class="st0" d="M168.78,221.903c0.015,0.008,0.015,0.014,0.015,0.014l0.014,0.008L168.78,221.903z"/> </g> </g>
</svg>